<?xml version="1.0" encoding="iso-8859-1"?>
<!-- Generator: Adobe Illustrator 19.0.0, SVG Export Plug-In . SVG Version: 6.00 Build 0)  -->
<svg xmlns="http://www.w3.org/2000/svg" xmlns:xlink="http://www.w3.org/1999/xlink" version="1.1" id="Capa_1" x="0px" y="0px" viewBox="0 0 511.999 511.999" style="enable-background:new 0 0 511.999 511.999;" xml:space="preserve" width="512px" height="512px">
<g>
	<g>
		<path d="M473.54,262.642c-5.652,0-10.869,1.378-15.497,3.455c-7.036-8.999-17.957-14.822-30.268-14.834    c-6.362,0-12.214,1.688-17.243,4.217l-0.526,0.292l-15.72,9.324c-7.047-8.427-17.602-13.827-29.444-13.833    c-6.362,0-12.214,1.688-17.243,4.217l-0.629,0.355l-60.188,36.864c-13.592-4.016-28.683-8.421-43.266-12.557    c-15.383-4.365-30.177-8.421-42.035-11.413c-5.938-1.499-11.133-2.729-15.377-3.604c-2.128-0.441-4.016-0.789-5.692-1.046    c-1.699-0.252-3.118-0.429-4.719-0.435c-1.236,0.006-2.306,0.114-3.524,0.263c-4.433,0.584-10.738,1.934-18.175,3.678    c-15.194,3.57-34.587,8.764-45.302,11.681V261.13c0-12.585-10.297-22.883-22.883-22.883H22.883C10.297,238.25,0,248.546,0,261.131    v177.341c0,12.585,10.297,22.883,22.883,22.883H85.81c12.585,0,22.883-10.297,22.883-22.883v-13.769    c13.581,2.957,43.723,9.467,75.502,15.995c21.493,4.411,43.706,8.827,62.052,12.156c9.176,1.664,17.385,3.055,24.107,4.039    c6.779,0.979,11.831,1.585,15.68,1.608c2.997-0.011,5.836-0.578,8.901-1.425c5.704-1.608,12.196-4.336,19.627-7.946    c25.863-12.609,63.007-36.229,98.046-59.604c34.97-23.346,67.687-46.406,83.716-57.441c10.034-6.916,15.675-18.604,15.675-30.972    C511.989,279.873,494.786,262.648,473.54,262.642z M91.53,438.473c0,3.1-2.62,5.72-5.72,5.72H22.883c-3.1,0-5.72-2.62-5.72-5.72    V261.131c0-3.1,2.62-5.72,5.72-5.72H85.81c3.1,0,5.72,2.62,5.72,5.72V438.473z M486.6,317.949    c-19.714,13.581-63.825,44.729-106.525,72.464c-21.333,13.855-42.31,26.848-59.512,36.263    c-8.592,4.708-16.258,8.512-22.385,11.059c-3.06,1.269-5.738,2.225-7.861,2.814c-2.111,0.6-3.702,0.801-4.279,0.789    c-1.871,0.017-6.824-0.475-13.191-1.425c-22.539-3.301-64.729-11.728-101.056-19.308c-18.18-3.793-34.925-7.374-47.127-10.006    c-7.088-1.528-12.557-2.723-15.967-3.461V297.058c1.677-0.464,3.873-1.064,6.51-1.779c9.045-2.454,22.848-6.133,35.228-9.182    c6.184-1.527,12.025-2.888,16.664-3.856c2.311-0.48,4.331-0.863,5.881-1.11c1.521-0.252,2.706-0.343,2.717-0.326    c0.029-0.006,0.927,0.051,2.151,0.241c4.737,0.709,14.445,2.98,26.269,6.075c35.634,9.308,91.822,26.132,114.522,33.025    c7.854,2.368,14.966,5.938,19.633,10.269c2.346,2.163,4.108,4.474,5.292,6.974c1.184,2.511,1.853,5.229,1.865,8.552    c-0.006,6.733-2.706,12.752-7.116,17.174c-4.382,4.365-10.332,7.036-16.973,7.099l-22.145-2.168l-75.576-9.703    c-4.703-0.6-9.005,2.717-9.611,7.42c-0.607,4.703,2.723,8.999,7.42,9.605l75.821,9.73l23.467,2.299h0.424    c22.888-0.006,41.44-18.558,41.452-41.452c0.011-5.761-1.264-11.178-3.524-15.921c-3.404-7.145-8.878-12.678-15.068-16.887    c-6.213-4.222-13.226-7.23-20.365-9.405c-3.981-1.207-8.999-2.729-14.73-4.451l46.572-28.529c3.02-1.487,6.11-2.328,9.382-2.334    c5.549-0.006,10.56,2.145,14.348,5.624l-23.008,13.644c-4.073,2.415-5.417,7.683-2.997,11.756    c2.42,4.073,7.683,5.423,11.762,3.004l53.408-31.676c3.038-1.505,6.144-2.351,9.428-2.351c5.921-0.006,11.247,2.46,15.109,6.373    l-62.189,36.881c-4.079,2.415-5.417,7.683-2.997,11.762c2.42,4.073,7.683,5.417,11.762,2.997l67.246-39.885    c0.652-0.109,1.31-0.269,1.951-0.544c1.378-0.584,2.5-1.51,3.363-2.609l2.099-1.247c3.038-1.505,6.144-2.351,9.427-2.351    c5.898,0.006,11.173,2.375,15.057,6.242c3.867,3.885,6.235,9.164,6.242,15.068C494.838,308.304,491.543,314.58,486.6,317.949z" fill="#a0c13e"/>
	</g>
</g>
<g>
	<g>
		<path d="M311.186,189.612h-61.457c3.81-4.25,7.471-9.445,10.372-15.772c3.718-8.095,6.133-17.963,6.126-29.536    c0-3.209-0.246-6.59-0.629-10.062h31.264c4.737,0,8.581-3.844,8.581-8.581c0-4.743-3.844-8.581-8.581-8.581h-33.363    c-0.257-2.174-0.526-4.411-0.783-6.659c-0.704-6.075-1.316-12.082-1.476-15.097l-0.006-0.051l-0.04-1.333    c0.006-7.082,3.095-13.483,8.249-18.329c5.149-4.822,12.277-7.82,19.794-7.809c5.109,0,9.834,1.378,13.964,3.769    c4.096,2.38,9.348,0.99,11.728-3.106c2.38-4.096,0.99-9.348-3.112-11.728c-6.601-3.838-14.348-6.093-22.58-6.093    c-12.054,0.011-23.243,4.714-31.509,12.431c-8.26,7.689-13.701,18.644-13.701,30.869c0,0.756,0.023,1.55,0.074,2.375l-0.006-0.051    c0.274,4.817,1.195,13.111,2.117,20.818h-23.111c-4.737,0-8.581,3.838-8.581,8.581c0.006,4.738,3.85,8.582,8.586,8.582h25.24    c0.486,3.581,0.721,6.945,0.721,10.062c-0.006,9.216-1.871,16.476-4.571,22.385c-4.045,8.827-10.131,14.73-15.285,18.467    c-2.563,1.86-4.875,3.152-6.476,3.953c-0.807,0.401-1.43,0.68-1.813,0.841l-0.406,0.166h-0.006    c-3.93,1.413-6.264,5.441-5.549,9.547c0.715,4.108,4.279,7.105,8.455,7.105h87.772c4.737,0,8.581-3.844,8.581-8.581    C319.767,193.45,315.923,189.612,311.186,189.612z" fill="#a0c13e"/>
	</g>
</g>
<g>
</g>
<g>
</g>
<g>
</g>
<g>
</g>
<g>
</g>
<g>
</g>
<g>
</g>
<g>
</g>
<g>
</g>
<g>
</g>
<g>
</g>
<g>
</g>
<g>
</g>
<g>
</g>
<g>
</g>
</svg>
